<?xml version="1.0" standalone="no"?>
<!DOCTYPE svg PUBLIC "-//W3C//DTD SVG 20010904//EN"
 "http://www.w3.org/TR/2001/REC-SVG-20010904/DTD/svg10.dtd">
<svg version="1.0" xmlns="http://www.w3.org/2000/svg"
 width="344.000000pt" height="315.000000pt" viewBox="0 0 344.000000 315.000000"
 preserveAspectRatio="xMidYMid meet">

<g transform="translate(0.000000,315.000000) scale(0.100000,-0.100000)"
fill="#000000" stroke="none">
<path d="M1555 2943 c-180 -29 -363 -94 -507 -180 -117 -70 -153 -98 -257
-198 -370 -356 -508 -870 -367 -1370 34 -119 140 -329 220 -436 348 -461 952
-658 1501 -488 217 67 391 174 561 343 196 197 313 404 376 667 20 82 22 120
22 304 0 181 -3 222 -22 296 -30 121 -73 236 -127 337 -47 87 -144 232 -157
232 -4 0 17 -33 46 -74 160 -223 242 -465 253 -746 9 -229 -32 -426 -133 -639
-183 -387 -557 -671 -984 -747 -139 -25 -365 -23 -497 5 -264 55 -480 167
-671 346 -304 286 -458 689 -422 1103 50 567 447 1044 995 1195 363 100 780
34 1100 -174 44 -28 90 -60 103 -72 12 -11 22 -16 22 -11 -1 29 -254 180 -385
230 -161 60 -246 75 -450 79 -104 2 -203 1 -220 -2z"/>
<path d="M1682 2904 c-7 -8 -17 -12 -23 -9 -5 4 -9 0 -9 -7 0 -10 -3 -9 -10 2
-8 12 -10 12 -15 -2 -6 -15 -60 -43 -77 -39 -5 0 -8 -6 -8 -14 0 -8 -5 -15
-12 -15 -6 0 -3 -9 7 -20 16 -18 16 -20 2 -20 -16 0 -45 -40 -36 -50 2 -3 -6
-9 -18 -15 -13 -5 -23 -18 -23 -27 0 -11 -8 -18 -20 -18 -11 0 -20 -4 -20 -10
0 -10 5 -12 33 -14 6 -1 18 -6 25 -13 14 -13 16 -53 3 -53 -13 0 -31 -57 -25
-75 4 -8 12 -15 19 -15 15 0 28 42 19 64 -4 10 -1 16 9 16 17 0 18 -34 2 -60
-7 -12 -6 -13 7 -3 8 7 17 10 20 7 3 -3 5 17 3 45 -3 49 11 65 27 31 5 -11 7
-10 7 5 1 21 41 45 74 45 16 0 17 -3 7 -15 -10 -13 -9 -15 11 -15 35 0 60 -48
49 -95 -10 -45 -20 -57 -52 -58 -23 -2 -71 -47 -49 -47 5 0 13 5 16 10 3 6 18
10 33 9 27 0 27 -1 5 -11 -13 -6 -25 -19 -28 -29 -3 -10 -16 -20 -28 -22 -21
-4 -21 -4 2 -6 15 -1 21 -6 18 -15 -3 -8 4 -22 16 -33 17 -14 19 -15 9 -1 -17
21 -12 74 6 70 8 -1 11 2 8 7 -6 10 23 25 32 16 3 -3 1 -10 -6 -17 -7 -7 -8
-17 -1 -30 7 -12 6 -25 -2 -39 -6 -13 -7 -19 -1 -15 6 3 13 0 15 -6 3 -7 6 2
6 21 1 32 2 33 19 18 10 -10 22 -17 25 -17 4 0 -7 12 -23 28 l-31 27 28 17
c43 25 57 11 45 -45 -7 -36 -6 -44 4 -40 7 2 14 -1 17 -9 2 -7 2 -1 0 13 -2
15 -1 38 3 53 8 33 41 35 49 3 4 -14 14 -23 27 -24 19 -2 19 -1 2 18 -22 25
-15 31 24 20 20 -6 32 -6 32 0 0 5 -4 9 -9 9 -5 0 -22 5 -38 11 -26 10 -27 11
-9 21 14 8 21 7 27 -3 5 -9 9 -9 9 -3 0 7 17 15 38 20 l37 8 -50 6 c-27 4 -66
3 -84 -1 -44 -10 -51 -5 -51 31 0 16 -4 32 -10 35 -5 3 -9 21 -8 40 1 33 3 35
38 35 26 0 45 8 64 25 34 31 38 31 53 -2 9 -19 10 -30 2 -40 -9 -10 -8 -13 4
-13 11 0 14 -5 10 -17 -4 -11 -3 -14 5 -9 7 4 15 1 18 -8 10 -25 29 -19 30 10
1 14 9 33 18 43 18 20 21 36 6 26 -15 -9 -12 1 5 18 12 12 12 21 2 48 -7 19
-16 37 -22 41 -6 5 -5 12 3 20 19 19 15 26 -24 38 -23 8 -34 17 -30 26 3 7 -1
20 -9 27 -7 8 -15 25 -17 38 -4 34 -33 35 -64 2 -14 -15 -24 -21 -22 -13 2 11
-7 15 -37 14 -29 -1 -44 4 -53 17 -12 17 -15 18 -28 4 -22 -21 -37 -19 -31 5
7 25 -4 32 -21 14z m28 -83 c0 -22 -41 -36 -52 -18 -4 6 -5 14 -2 16 3 3 9 -1
14 -9 8 -13 10 -12 10 2 0 14 7 21 28 27 1 1 2 -7 2 -18z m106 -13 c1 -10 -3
-15 -10 -12 -15 6 -17 36 -3 31 6 -2 11 -10 13 -19z m-66 2 c-20 -13 -33 -13
-25 0 3 6 14 10 23 10 15 0 15 -2 2 -10z m175 -30 c8 0 17 -4 20 -10 4 -6 -2
-7 -16 -1 -13 4 -24 13 -25 20 -1 6 0 7 3 1 2 -5 11 -10 18 -10z m-195 -10 c0
-5 -7 -7 -15 -4 -8 4 -12 10 -9 15 6 11 24 2 24 -11z m79 -16 c10 -8 -9 -15
-55 -19 l-49 -5 25 20 c22 17 62 19 79 4z m-239 -19 c0 -14 -13 -39 -31 -57
-18 -18 -27 -26 -20 -17 13 19 5 30 -17 22 -10 -4 -13 -2 -8 5 4 7 13 12 21
12 7 0 19 14 27 30 16 36 28 39 28 5z m362 -5 c-1 -16 2 -21 12 -17 14 5 31
-18 27 -37 -1 -4 6 -15 16 -23 17 -13 16 -14 -6 -7 -16 4 -21 3 -17 -5 4 -6 0
-11 -8 -11 -18 0 -21 16 -6 25 6 4 1 18 -11 35 -12 16 -19 35 -16 44 3 8 2 17
-4 20 -5 2 -4 3 3 2 7 -2 12 -13 10 -26z m-265 -36 c-31 -27 -24 -33 11 -8 21
14 22 14 22 -10 0 -13 5 -37 10 -51 l10 -27 -31 31 c-17 17 -36 31 -44 31 -7
0 -15 11 -17 25 -5 21 -1 26 26 34 42 11 46 4 13 -25z m133 16 c0 -22 16 -27
22 -8 3 8 7 8 11 2 3 -6 -13 -28 -37 -50 l-43 -39 1 51 c1 46 3 51 18 43 14
-7 16 -6 12 6 -4 8 -1 15 5 15 6 0 11 -9 11 -20z m90 -15 c0 -8 -9 -15 -20
-15 -20 0 -26 11 -13 23 12 13 33 7 33 -8z m-159 -42 c-9 -16 -10 -15 -11 8 0
14 3 29 8 33 12 12 14 -22 3 -41z m-134 18 c10 -16 9 -20 -4 -25 -8 -4 -22 -1
-29 5 -12 10 -13 9 -8 -5 3 -9 1 -16 -5 -16 -16 0 -13 21 6 42 20 23 25 23 40
-1z m333 -7 c0 -14 -3 -14 -15 -4 -8 7 -15 14 -15 16 0 2 7 4 15 4 8 0 15 -7
15 -16z m-30 -14 c13 -8 12 -10 -3 -10 -10 0 -20 -7 -23 -15 -9 -23 -19 -18
-19 10 0 26 18 32 45 15z m-57 -6 c11 -11 -5 -34 -24 -34 -21 0 -22 1 -13 24
6 16 25 21 37 10z m154 -86 c-3 -8 -6 -5 -6 6 -1 11 2 17 5 13 3 -3 4 -12 1
-19z"/>
<path d="M2650 2595 c19 -19 36 -35 39 -35 3 0 -10 16 -29 35 -19 19 -36 35
-39 35 -3 0 10 -16 29 -35z"/>
<path d="M1900 2606 c0 -2 8 -10 18 -17 15 -13 16 -12 3 4 -13 16 -21 21 -21
13z"/>
<path d="M1631 2584 c0 -11 3 -14 6 -6 3 7 2 16 -1 19 -3 4 -6 -2 -5 -13z"/>
<path d="M2750 2495 c19 -19 36 -35 39 -35 3 0 -10 16 -29 35 -19 19 -36 35
-39 35 -3 0 10 -16 29 -35z"/>
<path d="M1176 2408 c170 -173 194 -200 194 -214 0 -8 -2 -14 -5 -14 -3 0 -75
65 -161 145 -85 80 -160 145 -166 145 -7 0 57 -69 140 -154 84 -84 152 -159
152 -165 0 -33 -50 5 -187 141 -84 84 -153 147 -153 139 0 -7 65 -82 145 -167
133 -140 159 -174 137 -174 -4 0 -78 67 -163 149 -84 82 -156 147 -158 145 -2
-2 36 -47 85 -100 111 -122 281 -296 263 -270 -13 18 -12 19 6 11 11 -4 43
-16 70 -25 48 -17 49 -18 20 -22 l-30 -5 33 -2 c18 0 47 -7 65 -15 33 -13 237
-221 237 -241 0 -15 -82 -92 -260 -245 -85 -72 -170 -148 -189 -169 -118 -127
-122 -236 -8 -201 46 14 154 117 297 285 100 118 220 245 231 245 10 0 196
-226 313 -380 102 -134 144 -165 206 -155 72 12 104 76 72 148 -17 37 -44 63
-170 158 -82 63 -197 155 -255 204 l-106 90 31 33 c18 17 38 32 45 32 7 0 17
10 24 23 6 12 144 155 306 318 194 195 293 301 288 309 -12 19 -91 7 -155 -23
-98 -45 -202 -127 -352 -277 l-148 -146 0 -47 c0 -35 -4 -47 -15 -47 -9 0 -19
-10 -24 -22 -5 -13 -24 -37 -43 -55 l-33 -32 -100 88 c-124 109 -155 151 -155
212 0 60 -22 96 -106 171 -39 35 -123 111 -186 171 -63 59 -119 107 -124 107
-5 0 37 -46 92 -102z m1319 -9 c11 -16 -25 -49 -54 -49 -34 0 -134 -48 -213
-102 -35 -23 -123 -100 -196 -172 -73 -71 -136 -126 -140 -122 -13 14 298 308
388 367 120 79 198 107 215 78z"/>
<path d="M1952 2408 c-7 -7 -12 -16 -12 -21 0 -5 7 -1 16 8 9 9 14 18 12 20
-2 3 -10 -1 -16 -7z"/>
<path d="M1890 2229 c0 -5 5 -7 10 -4 6 3 10 8 10 11 0 2 -4 4 -10 4 -5 0 -10
-5 -10 -11z"/>
<path d="M1582 2198 c-28 -28 -3 -72 39 -66 30 4 47 33 33 56 -14 21 -55 27
-72 10z m51 -34 c-6 -16 -29 -19 -38 -4 -4 6 -1 17 5 26 15 18 42 0 33 -22z"/>
<path d="M1670 2170 c0 -29 4 -40 15 -40 8 0 15 6 15 13 0 8 7 14 15 14 8 0
15 -6 15 -14 0 -7 7 -13 15 -13 11 0 15 11 15 40 0 42 -9 50 -30 25 -12 -14
-15 -14 -30 0 -25 23 -30 19 -30 -25z"/>
<path d="M1780 2170 c0 -39 1 -41 28 -38 24 3 27 7 27 38 0 31 -3 35 -27 38
-27 3 -28 1 -28 -38z m35 20 c3 -5 1 -10 -4 -10 -6 0 -11 5 -11 10 0 6 2 10 4
10 3 0 8 -4 11 -10z"/>
<path d="M1860 2175 c0 -63 62 -59 68 4 2 23 -1 31 -13 31 -9 0 -15 -6 -14
-12 3 -27 -1 -48 -11 -48 -5 0 -10 14 -10 30 0 17 -4 30 -10 30 -5 0 -10 -16
-10 -35z"/>
<path d="M2565 1755 c-38 -37 -35 -95 6 -129 36 -30 65 -33 99 -9 35 24 40 33
40 76 0 51 -35 87 -85 87 -25 0 -44 -8 -60 -25z"/>
<path d="M801 1744 c-72 -61 -10 -173 82 -148 22 7 37 20 50 46 16 33 17 40 3
71 -25 62 -83 75 -135 31z"/>
<path d="M1281 969 c-113 -23 -261 -121 -301 -200 -26 -50 -25 -81 3 -107 30
-28 98 -29 169 -2 29 11 54 20 56 20 2 0 -9 -18 -25 -39 -23 -33 -35 -40 -72
-44 -51 -6 -92 -33 -106 -72 -8 -23 -6 -30 15 -47 35 -28 67 -16 128 50 40 42
64 59 94 67 23 5 43 16 46 23 3 9 -6 8 -32 -5 -20 -9 -38 -14 -42 -10 -9 9 59
106 105 152 47 45 50 55 17 55 -16 0 -34 -14 -57 -44 -44 -58 -114 -97 -188
-103 -44 -4 -59 -2 -70 10 -21 26 3 80 66 147 99 108 272 171 332 122 l25 -19
-27 -27 c-18 -18 -37 -26 -62 -26 -19 0 -35 -4 -35 -10 0 -13 59 -13 99 1 55
19 62 72 13 98 -28 15 -104 20 -151 10z m-178 -436 c-43 -52 -69 -64 -79 -38
-9 22 41 73 81 84 16 4 32 6 34 5 2 -2 -14 -25 -36 -51z"/>
<path d="M2335 958 c-4 -11 4 -33 24 -62 18 -26 27 -47 21 -51 -15 -9 -12 -25
4 -19 8 3 25 -9 40 -29 27 -35 32 -82 17 -137 -10 -35 -52 -48 -85 -26 l-26
17 20 39 c22 42 27 105 9 115 -43 27 -99 -52 -81 -112 7 -24 7 -52 0 -94 -13
-68 -34 -78 -43 -21 -15 88 -28 133 -44 141 -26 14 -61 -6 -76 -43 l-15 -35
-25 25 c-20 20 -29 23 -45 14 -11 -6 -26 -22 -34 -37 -13 -26 -14 -26 -20 -5
-4 12 -12 22 -17 22 -17 0 -21 -28 -10 -60 9 -26 6 -39 -15 -85 -41 -86 -73
-80 -60 10 21 155 24 143 -32 123 -29 -11 -35 -10 -43 5 -12 21 -35 22 -43 2
-8 -21 3 -45 20 -45 19 0 17 -17 -6 -68 -25 -55 -58 -102 -72 -102 -10 0 -4
134 9 188 5 19 2 23 -13 20 -18 -3 -24 -22 -39 -110 -3 -21 -17 -50 -30 -65
-22 -26 -25 -27 -41 -11 -16 16 -16 24 -4 103 7 47 10 88 7 91 -17 17 -37 -9
-43 -55 -3 -28 -9 -49 -13 -48 -3 0 -17 -5 -29 -12 -29 -16 -37 -9 -23 17 16
30 13 84 -5 110 -20 29 -59 29 -78 0 -27 -41 -26 -75 0 -114 28 -40 20 -64
-20 -64 -32 0 -46 19 -46 61 0 51 15 88 53 127 35 36 20 43 -29 13 -40 -24
-69 -95 -60 -145 13 -67 85 -96 136 -56 14 11 30 20 35 20 6 0 22 7 38 14 l27
15 0 -37 c0 -45 23 -82 51 -82 11 0 31 12 44 26 18 20 25 23 25 11 0 -28 29
-48 51 -36 26 13 88 110 95 149 4 19 18 36 41 50 19 11 36 20 38 20 2 0 -7
-31 -21 -70 -13 -38 -24 -79 -24 -90 0 -32 18 -60 39 -60 20 0 71 53 71 73 0
7 7 20 14 30 13 17 15 13 27 -37 7 -35 17 -56 26 -56 22 0 24 22 8 75 -17 58
-19 108 -5 136 26 47 56 2 81 -119 14 -65 15 -67 38 -53 12 8 11 20 -4 79 -17
63 -17 74 -4 109 10 26 21 38 34 38 17 0 22 -13 36 -83 9 -46 23 -90 31 -98
22 -23 47 -6 59 40 6 22 13 46 15 53 2 8 15 5 41 -9 73 -40 123 2 123 103 l0
41 31 -27 c21 -17 41 -25 58 -23 25 3 26 6 29 66 2 34 -2 70 -7 80 -8 12 -9 2
-5 -40 6 -50 4 -59 -11 -65 -14 -5 -29 5 -58 38 -66 74 -72 86 -53 108 23 26
20 37 -5 15 -21 -19 -21 -18 -42 6 -12 14 -29 37 -39 50 -14 22 -17 23 -23 8z
m10 -198 c4 -11 1 -37 -6 -57 -11 -34 -13 -35 -25 -18 -14 20 -19 77 -7 88 13
13 32 7 38 -13z m-897 -131 c2 -19 -2 -48 -8 -63 -21 -57 -58 18 -38 76 14 41
42 33 46 -13z"/>
</g>
</svg>
